<svg xmlns="http://www.w3.org/2000/svg" version="1.1" xmlns:xlink="http://www.w3.org/1999/xlink" width="40" height="40" x="0" y="0" viewBox="0 0 16.933 16.933" style="enable-background:new 0 0 512 512" xml:space="preserve" class=""><g><path d="M11.115 11.372V9.524a.265.265 0 0 0-.02-.098L10.037 6.78a1.55 1.55 0 0 0-.24-.438.655.655 0 0 0-.436-.248l.15-.454c.094-.28.202-.51.615-.751l2.405-1.52a.259.259 0 0 0 .08-.366.262.262 0 0 0-.362-.08L9.855 4.434a1.813 1.813 0 0 0-.846 1.038l-.204.613h-2.08l.345-.969c.17-.475.508-.966.973-1.17l4.777-1.954c.006.019.01.037.017.056l2.211 6.11-2.295 3.06a.265.265 0 0 0 .211.423h1.588c1.022 0 1.851-.83 1.851-1.851v-.53c0-.352-.529-.352-.529 0v.53c0 .737-.584 1.322-1.322 1.322h-1.057l1.983-2.645h.662c.166-.001.29-.152.26-.315L15.136 1.43c-.11-.584-.686-.988-1.33-.89-.553.085-.886.48-.992.883L7.834 3.46c-.658.288-1.058.906-1.262 1.478l-.409 1.147h-.076c-.48 0-.695.378-.788.747L4.82 8.73H1.323a.798.798 0 0 0-.794.793v1.854c0 .435.36.792.794.792h.793v.551c-.896.13-1.588.9-1.588 1.83 0 1.022.832 1.852 1.854 1.852h8.201a1.852 1.852 0 0 0 0-3.703h-.264v-.53a.793.793 0 0 0 .796-.798zm3.5-9.845 1.205 6.41h-.289l-2.196-6.07c-.118-.323.12-.726.541-.798.36-.063.682.16.739.458zm-.592.06a.265.265 0 1 0 0 .53.265.265 0 0 0 0-.53zm-3.704 10.054H1.323a.258.258 0 0 1-.265-.263V9.524c0-.151.114-.263.265-.263H5.03a.265.265 0 0 0 .257-.201l.531-2.134c.05-.2.12-.312.27-.312h3.176c.07 0 .081.012.129.068.047.057.102.166.154.295l1.039 2.598v1.806a.257.257 0 0 1-.266.26zM6.616 7.143c-.12 0-.225.081-.256.197l-.423 1.586a.265.265 0 0 0 .255.335H7.41v.792c0 .053.016.104.045.147l.53.795c.049.073.132.117.22.117h1.588a.265.265 0 0 0 .264-.263v-1.06a.265.265 0 0 0-.022-.103l-1.002-2.38a.265.265 0 0 0-.244-.163zm.203.53h.59V8.73h-.873zm1.12 0h.673l.915 2.17v.74H8.345l-.406-.61v-.978zm-6.09 2.113a.265.265 0 0 0-.262.267v.796c-.008.36.537.36.53 0v-.796a.265.265 0 0 0-.269-.267zm1.058 0a.265.265 0 0 0-.261.267v.796c-.008.36.537.36.529 0v-.796a.265.265 0 0 0-.268-.267zm1.057 0a.265.265 0 0 0-.26.267v.796c.008.344.522.344.53 0v-.796a.265.265 0 0 0-.27-.267zM2.646 12.17H9.79v.53H8.466c-.353 0-.353.53 0 .53h2.117c.738 0 1.322.584 1.322 1.322 0 .737-.584 1.322-1.322 1.322H2.382a1.314 1.314 0 0 1-1.324-1.322c0-.738.586-1.323 1.324-1.323h5.027c.353 0 .353-.53 0-.53H2.646zm.265 1.588c-.435 0-.795.358-.795.794s.36.794.795.794c.436 0 .793-.36.793-.794a.796.796 0 0 0-.793-.794zm2.381 0c-.435 0-.795.358-.795.794s.36.794.795.794c.435 0 .793-.36.793-.794a.796.796 0 0 0-.793-.794zm2.38 0a.796.796 0 0 0-.792.794c0 .435.358.794.793.794s.793-.36.793-.794a.796.796 0 0 0-.793-.794zm2.382 0a.796.796 0 0 0-.793.794c0 .435.357.794.793.794.435 0 .795-.36.795-.794s-.36-.794-.795-.794zm-7.143.53c.15 0 .264.114.264.264s-.114.265-.264.265a.262.262 0 0 1-.265-.265c0-.15.116-.264.265-.264zm2.381 0a.26.26 0 0 1 .264.264.26.26 0 0 1-.264.265.262.262 0 0 1-.265-.265c0-.15.116-.264.265-.264zm2.38 0c.15 0 .264.114.264.264s-.114.265-.263.265-.264-.116-.264-.265.115-.264.264-.264zm2.382 0c.149 0 .265.114.265.264 0 .149-.116.265-.265.265-.15 0-.264-.116-.264-.265s.114-.264.264-.264z" fill="#ffffff" opacity="1" data-original="#000000"></path></g></svg>