<svg xmlns="http://www.w3.org/2000/svg" version="1.1" xmlns:xlink="http://www.w3.org/1999/xlink" width="40" height="40" x="0" y="0" viewBox="0 0 512 512" style="enable-background:new 0 0 512 512" xml:space="preserve" class=""><g><path d="m495.49 237.191-24-64a8 8 0 0 0-4.96-4.781l-39.951-13.316 12.849-32.123a8 8 0 0 0-9.958-10.561L382.7 128h-18.419l-11.787-17.681 7.351-36.75a8 8 0 0 0-2.188-7.226l-40-40a8.009 8.009 0 0 0-4.773-2.294l-72-8a8.016 8.016 0 0 0-6.343 2.1l-21.828 20.376-37.032 1.482a8 8 0 0 0-7.109 5.022l-16 40a8 8 0 0 0 1.771 8.628l16 16a8 8 0 0 0 7.855 2.035l50.881-14.538L256 130.807v33.563l-37.082 32.446c-.241-.185-.486-.368-.7-.569-3.726-3.466-3.937-8.82-3.071-16.762a192.3 192.3 0 0 0 18.87-7.518l-6.7-14.529a176.224 176.224 0 0 1-10.226 4.309 44.472 44.472 0 0 0-1.428-14.372c-3.716-12.827-15.53-23.135-30.834-26.9-12.669-3.119-25.638-1.715-37.081-.475l1.723 15.906c10.623-1.148 21.606-2.338 31.534.106 9.621 2.367 17.192 8.576 19.29 15.816 1.281 4.424.96 9.71.28 15.378a176.083 176.083 0 0 1-20.774 4.45l2.383 15.823q8.364-1.262 16.573-3.248c-.246 8.31 1.239 16.547 8.026 23.207l-10.338 9.045-43.8 7.3-46.115-15.373a8.006 8.006 0 0 0-5.06 0l-48 16a8 8 0 0 0-4.416 3.621l-32 56A7.992 7.992 0 0 0 16 288v104a8 8 0 0 0 5.191 7.49l64 24a8 8 0 0 0 9.669-3.374l22.614-37.689 34.776-13.91 16.815 5.6 7.09 35.448a8 8 0 0 0 4.6 5.742l72 32a8.008 8.008 0 0 0 4.564.581l42.5-7.084 29.236 51.161a8 8 0 0 0 11.6 2.541l56-40A8 8 0 0 0 400 448v-48a8 8 0 0 0-2.338-5.657l-44.595-44.594 9.434-30.66c6.06 2.917 12.694 4.17 19.372 4.692-.163 6.9-.064 13.807.333 20.7l15.973-.922q-.559-9.707-.312-19.44a311.71 311.71 0 0 1 6.192 0c10.955.135 27.7 4.323 28.934 15.31l15.9-1.783c-1.107-9.868-7.132-17.9-17.425-23.218-7.632-3.946-17.3-6.186-27.215-6.307a262.855 262.855 0 0 0-5.474 0q.764-8.388 2.129-16.708l60.562 20.177a8 8 0 0 0 8.187-1.933l24-24A8 8 0 0 0 496 280v-40h-.008a7.985 7.985 0 0 0-.502-2.809Zm-226.222-63.17A8 8 0 0 0 272 168v-40a8 8 0 0 0-1.753-5l-32-40a8 8 0 0 0-8.445-2.695l-51.474 14.71-8.941-8.942L181.5 55.786l34.817-1.392a8 8 0 0 0 5.14-2.145l21.312-19.892 65.556 7.285 34.99 34.988-7.16 35.8a8 8 0 0 0 1.189 6.007l16 24A8 8 0 0 0 360 144h24a8.032 8.032 0 0 0 2.53-.41l31.636-10.546-9.594 23.985a8 8 0 0 0 4.9 10.561l44.38 14.793 21.121 56.323-18.11 24.146-82.763-22.57a8 8 0 0 0-9.75 5.365L354.492 290.7a24.344 24.344 0 0 0-5.869-3.75c-5.375-2.389-10.941-2.325-15.865-2.276-4.046.046-7.864.086-9.276-1.373-.934-.965-1.6-3.35-2.25-5.654l-.359-1.271a81.578 81.578 0 0 0-8.519-19.393l8.976-8.168-10.768-11.835-7.666 6.976c-9.485-10.972-21.958-20.6-36.929-28.516l11.154-9.294-10.242-12.292-16.985 14.155q-6.656-2.682-13.8-4.958Zm69.286 302.324-27.608-48.314a8 8 0 0 0-8.261-3.923l-45.631 7.606-66.022-29.343-7.187-35.94a8 8 0 0 0-5.315-6.021l-24-8a8.018 8.018 0 0 0-5.5.162l-40 16a8 8 0 0 0-3.889 3.312l-20.572 34.285L32 386.456V363.1l37.47 12.49a8.006 8.006 0 0 0 8.777-2.59l30.021-37.525 51.507-7.359L193.2 334.8l6.954 34.77a8 8 0 0 0 4.267 5.586l48 24a8 8 0 0 0 4.71.765l51.009-7.287 29.2 43.805a8 8 0 0 0 11.094 2.218L384 414.948v28.935Zm40.889-77.588-33.224 22.149-27.563-41.344a8.005 8.005 0 0 0-7.788-3.482l-53.525 7.647-42.266-21.127-7.232-36.164a8 8 0 0 0-6.276-6.276l-40-8a7.981 7.981 0 0 0-2.7-.075l-56 8A8 8 0 0 0 97.753 323l-28.515 35.646L32 346.234v-56.11l29.43-51.5L104 224.433l45.47 15.157a8.028 8.028 0 0 0 3.845.3l48-8a8.022 8.022 0 0 0 3.953-1.871l16.591-14.519c1.047.316 2.082.611 3.092.9l.655.187c2.865.817 6.311 1.887 10.125 3.223l-16.852 14.043 10.242 12.292 23.379-19.478c13.3 6.282 27.772 15.338 38.625 28l-18.567 16.894L283.32 283.4l16.938-15.411a66.051 66.051 0 0 1 5.242 12.821l.327 1.156c1.073 3.826 2.408 8.589 6.157 12.462 6.2 6.4 14.375 6.313 20.948 6.245 3.6-.036 7-.075 9.192.9 2.09.929 4.038 3.23 6.293 5.895.221.262.448.526.673.79l-12.736 41.392a8 8 0 0 0 1.989 8.01Zm3.289-90.948c-5.853-.482-11.157-1.641-15.432-4.331l6.5-21.113 11.729 3.91q-1.855 10.701-2.797 21.534Zm79.107-12.962L378.5 267.068l2.865-9.312 80.535 21.962a8 8 0 0 0 8.5-2.918L480 264v12.687Z" fill="#ffffff" opacity="1" data-original="#000000"></path></g></svg>