<svg xmlns="http://www.w3.org/2000/svg" version="1.1" xmlns:xlink="http://www.w3.org/1999/xlink" width="50" height="50" x="0" y="0" viewBox="0 0 64 64" style="enable-background:new 0 0 512 512" xml:space="preserve" class=""><g><g data-name="Data mining"><path fill="#ffeb99" d="M6 3h42v54H6z" opacity="1" data-original="#ffeb99" class=""></path><path fill="#2488ff" d="m47.707 30.05-2.828-2.828-.707.707-4.243 4.243-.707.707 4.95 4.949 2.121 2.122 2.828 2.828.707-.707 4.243-4.243.707-.707-2.828-2.828z" opacity="1" data-original="#2488ff"></path><path fill="#ffb655" d="m44.172 37.828 2.121 2.122z" opacity="1" data-original="#ffb655"></path><path fill="#d1d3d4" d="M52.775 45.018a12 12 0 0 1 2.9 4.69l1.225 3.677.862-4.309a12 12 0 0 0-3.282-10.839l-.409-.409-4.243 4.243zM43.763 27.52a12 12 0 0 0-10.839-3.281l-4.309.861 3.677 1.226a12 12 0 0 1 4.69 2.9l2.947 2.947 4.243-4.243z" opacity="1" data-original="#d1d3d4" class=""></path><path fill="#ffb655" d="m44.172 27.929-4.243 4.243z" opacity="1" data-original="#ffb655"></path><path fill="#808285" d="m47.698 30.052 2.121-2.12 4.242 4.241-2.12 2.121z" opacity="1" data-original="#808285"></path><path fill="#ffb655" d="m47.707 30.05 4.243 4.243z" opacity="1" data-original="#ffb655"></path><path fill="#d80027" d="M13 14h4v6h-4z" opacity="1" data-original="#d80027"></path><path fill="#ffcd00" d="M21 10h4v10h-4z" opacity="1" data-original="#ffcd00"></path><path fill="#ff9811" d="M37 10h4v10h-4z" opacity="1" data-original="#ff9811"></path><path fill="#5eac24" d="M29 7h4v13h-4z" opacity="1" data-original="#5eac24"></path><path fill="#ffde55" d="M6 35v22h28C18.523 57 6 47.16 6 35z" opacity="1" data-original="#ffde55"></path><path fill="#808285" d="M42.05 35.707 22.494 55.263a3 3 0 1 0 4.243 4.243L46.293 39.95l-2.121-2.122z" opacity="1" data-original="#808285"></path><path d="M18 56H7V4h40v21a1 1 0 0 0 2 0V3a1 1 0 0 0-1-1H6a1 1 0 0 0-1 1v54a1 1 0 0 0 1 1h12a1 1 0 0 0 0-2z" fill="#000000" opacity="1" data-original="#000000" class=""></path><path d="m55.467 37.847.018-.019a1 1 0 0 0 0-1.414l-2.121-2.121 1.414-1.415a1 1 0 0 0 0-1.414l-4.243-4.242a1.029 1.029 0 0 0-1.414 0l-1.414 1.414-2.121-2.121a1 1 0 0 0-1.414 0l-.019.019a12.95 12.95 0 0 0-11.425-3.276l-4.309.862a1 1 0 0 0-.12 1.929l3.677 1.226a11.051 11.051 0 0 1 4.3 2.657l2.24 2.24a1 1 0 0 0 0 1.414l2.121 2.121-18.85 18.85a4 4 0 1 0 5.656 5.656l18.85-18.849 2.121 2.121a1 1 0 0 0 1.414 0l2.24 2.24a11.055 11.055 0 0 1 2.658 4.3l1.225 3.675a1 1 0 0 0 .948.684h.063a1 1 0 0 0 .918-.8l.862-4.31a12.962 12.962 0 0 0-3.275-11.427zm-22.859-12.47-.1-.034.617-.124a10.981 10.981 0 0 1 9.631 2.716l-2.822 2.822-2.24-2.239a13.063 13.063 0 0 0-5.086-3.141zm17.22 3.966 2.829 2.828-.707.708-2.829-2.829zM26.029 58.8a2.047 2.047 0 0 1-2.828 0 2 2 0 0 1 0-2.828L42.05 37.121l2.829 2.829zm14.607-25.92 4.243-4.243 8.485 8.485-4.243 4.243zm16.145 16-.124.618-.034-.1a13.052 13.052 0 0 0-3.141-5.082l-2.24-2.24 2.823-2.822a10.975 10.975 0 0 1 2.716 9.625z" fill="#000000" opacity="1" data-original="#000000" class=""></path><path d="M48 58H34.25a1 1 0 0 1 0-2H47V46a1 1 0 0 1 2 0v11a1 1 0 0 1-1 1zM44 19h-2v-9a1 1 0 0 0-1-1h-4a1 1 0 0 0-1 1v9h-2V7a1 1 0 0 0-1-1h-4a1 1 0 0 0-1 1v12h-2v-9a1 1 0 0 0-1-1h-4a1 1 0 0 0-1 1v9h-2v-5a1 1 0 0 0-1-1h-4a1 1 0 0 0-1 1v5h-2a1 1 0 0 0 0 2h34a1 1 0 0 0 0-2zm-30 0v-4h2v4zm8 0v-8h2v8zm8 0V8h2v11zm8 0v-8h2v8zM14 30h-2a1 1 0 0 1 0-2h2a1 1 0 0 1 0 2zM30 30H18a1 1 0 0 1 0-2h12a1 1 0 0 1 0 2zM35 36H12a1 1 0 0 1 0-2h23a1 1 0 0 1 0 2zM30 42H12a1 1 0 0 1 0-2h18a1 1 0 0 1 0 2zM24 48H12a1 1 0 0 1 0-2h12a1 1 0 0 1 0 2z" fill="#000000" opacity="1" data-original="#000000" class=""></path></g></g></svg>