<svg xmlns="http://www.w3.org/2000/svg" version="1.1" xmlns:xlink="http://www.w3.org/1999/xlink" width="40" height="40" x="0" y="0" viewBox="0 0 128 128" style="enable-background:new 0 0 512 512" xml:space="preserve" class=""><g><path d="M69.015 47.944A205.608 205.608 0 0 1 81.208 68.35a2 2 0 0 0 3.584 0 205.608 205.608 0 0 1 12.193-20.405l.751-1.154c3.436-5.286 6.5-10.554 6.252-16.878a22.12 22.12 0 0 0-1.409-6.958 21.043 21.043 0 0 0-39.157 0 22.097 22.097 0 0 0-1.41 6.958c-.248 6.324 2.816 11.592 6.252 16.879zm-3.007-17.876a18.13 18.13 0 0 1 1.157-5.704 17.043 17.043 0 0 1 31.671 0 18.156 18.156 0 0 1 1.156 5.704c.201 5.151-2.539 9.818-5.61 14.541l-.75 1.153C89.989 51.359 86.24 57.117 83 63.115c-3.24-5.998-6.988-11.756-10.633-17.353l-.75-1.152c-3.07-4.724-5.81-9.39-5.61-14.542z" fill="#ffffff" opacity="1" data-original="#000000" class=""></path><path d="M83 44a13 13 0 1 0-13-13 13.015 13.015 0 0 0 13 13zm0-22a9 9 0 1 1-9 9 9.01 9.01 0 0 1 9-9zM58.46 35.065 46.08 26.527a24.42 24.42 0 0 1-1.599 3.757l16.064 11.08a28.748 28.748 0 0 1-2.087-6.3zM123.414 79.097a2.005 2.005 0 0 0-1.887-.565l-10.402 2.371-7.662-10.85a2.004 2.004 0 0 0-.563-.535l-5.973-3.784-2.97-5.593q-1.225 2.007-2.385 4.037l2.07 3.9a1.998 1.998 0 0 0 .697.752l6.085 3.855 8.206 11.62a2.008 2.008 0 0 0 2.078.797l10.606-2.418 2.387 2.486-4.525 12.727-32.49 9.123a2 2 0 0 0-1.178.903l-3.835 6.45-7.564-5.038a1.995 1.995 0 0 0-1.604-.272l-12.336 3.155a1.99 1.99 0 0 0-1.151.803L55.585 118h-3.693L33.188 91.012l-.235-7.794a2.004 2.004 0 0 0-.31-1.012L16.026 56.031a2 2 0 0 0-1.31-.892l-7.479-1.443-2.695-6.893 13.378-6.337a263.764 263.764 0 0 0-2.179-3.394L1.144 43.986a2 2 0 0 0-1.006 2.536l3.776 9.658a2 2 0 0 0 1.484 1.235l7.712 1.488 15.862 24.984.235 7.837a2.001 2.001 0 0 0 .356 1.08L49.2 121.14a1.998 1.998 0 0 0 1.644.86h5.79a1.998 1.998 0 0 0 1.647-.865l3.604-5.228 10.747-2.749 8.575 5.711a2 2 0 0 0 2.827-.642l4.502-7.573 32.717-9.185a2 2 0 0 0 1.344-1.256l5.287-14.867a2.003 2.003 0 0 0-.442-2.056z" fill="#ffffff" opacity="1" data-original="#000000" class=""></path><path d="M28 6a14.756 14.756 0 0 0-13.984 9.483 15.608 15.608 0 0 0-1.005 4.938c-.179 4.493 1.97 8.176 4.38 11.865l.523.798a139.175 139.175 0 0 1 8.296 13.809 2 2 0 0 0 3.58 0 139.175 139.175 0 0 1 8.296-13.809l.523-.798c2.41-3.688 4.558-7.371 4.38-11.864a15.608 15.608 0 0 0-1.004-4.94A14.756 14.756 0 0 0 28 6zm10.993 14.58c.131 3.318-1.613 6.273-3.732 9.517l-.522.797c-2.294 3.504-4.647 7.1-6.739 10.837-2.092-3.737-4.445-7.333-6.74-10.837l-.52-.797c-2.12-3.244-3.864-6.2-3.733-9.519a11.68 11.68 0 0 1 .749-3.678A10.691 10.691 0 0 1 28 10a10.691 10.691 0 0 1 10.244 6.9 11.68 11.68 0 0 1 .75 3.678z" fill="#ffffff" opacity="1" data-original="#000000" class=""></path><path d="M28 14a7 7 0 1 0 7 7 7.008 7.008 0 0 0-7-7zm0 10a3 3 0 1 1 3-3 3.003 3.003 0 0 1-3 3zM39.016 72.482a15.608 15.608 0 0 0-1.005 4.939c-.179 4.493 1.97 8.176 4.38 11.865l.52.794a139.378 139.378 0 0 1 8.3 13.813 2 2 0 0 0 3.58 0 139.378 139.378 0 0 1 8.298-13.813l.52-.795c2.41-3.687 4.558-7.37 4.38-11.863a15.597 15.597 0 0 0-1.004-4.939 15.053 15.053 0 0 0-27.97 0zm3.74 1.417a11.055 11.055 0 0 1 20.488.001 11.674 11.674 0 0 1 .75 3.678v.001c.13 3.319-1.614 6.275-3.733 9.518l-.519.793c-2.295 3.506-4.65 7.102-6.742 10.842-2.093-3.74-4.447-7.336-6.742-10.842l-.519-.792c-2.119-3.244-3.863-6.2-3.732-9.52a11.685 11.685 0 0 1 .749-3.679z" fill="#ffffff" opacity="1" data-original="#000000" class=""></path><path d="M53 85a7 7 0 1 0-7-7 7.008 7.008 0 0 0 7 7zm0-10a3 3 0 1 1-3 3 3.003 3.003 0 0 1 3-3z" fill="#ffffff" opacity="1" data-original="#000000" class=""></path></g></svg>