<svg xmlns="http://www.w3.org/2000/svg" version="1.1" xmlns:xlink="http://www.w3.org/1999/xlink" width="40" height="40" x="0" y="0" viewBox="0 0 500 500" style="enable-background:new 0 0 512 512" xml:space="preserve" class=""><g><path fill-rule="evenodd" d="M361.26 24.285c-62.974 0-114.025 51.051-114.025 114.025s51.051 114.025 114.025 114.025 114.025-51.051 114.025-114.025S424.235 24.285 361.26 24.285zm0 35.417c43.416 0 78.608 35.193 78.608 78.608s-35.193 78.608-78.608 78.608c-43.416 0-78.608-35.192-78.608-78.608s35.192-78.608 78.608-78.608zm29.735 36.703a7.036 7.036 0 0 1-7.329 12.013c-6.677-4.078-14.627-6.282-22.844-6.382-5.584-.068-13.219 3.035-16.316 7.861-4.398 6.853-1.318 14.522 6.022 18.665 7.87 4.426 16.519.708 28.666 7.186 4.552 2.428 8.621 6.354 11.039 10.139 11.12 17.407-.711 37.884-21.164 42.001a.932.932 0 0 0-.755.922v6.093a7.054 7.054 0 0 1-14.108 0v-5.935a.936.936 0 0 0-.806-.931c-7.683-1.111-15.042-3.738-21.895-7.741a7.051 7.051 0 0 1 7.109-12.179c9.161 5.35 23.748 9.43 33.856 3.723 10.976-6.163 10.051-18.145.076-23.712-8.123-4.533-18.22-.948-29.107-7.397-9.197-5.448-14.493-13.126-15.008-23.626-.243-4.949 1.768-10.985 4.225-14.813 4.416-6.881 12.666-11.767 20.803-13.49a.933.933 0 0 0 .746-.92v-6.168a7.054 7.054 0 0 1 14.108 0v5.979c0 .471.34.864.806.931 7.961 1.149 15.228 3.718 21.876 7.781zm19.598 219.438a7.053 7.053 0 0 1-9.974-9.974l29.726-29.634a7.06 7.06 0 0 1 9.295.677l28.958 28.958a7.053 7.053 0 0 1-9.974 9.974l-15.356-15.356c-.593-.593-1.605-.174-1.605.665v105.226a7.054 7.054 0 0 1-7.054 7.054h-76.873a7.054 7.054 0 0 1 0-14.108h68.879c.518 0 .94-.422.94-.94v-97.232c0-.839-1.012-1.258-1.605-.665zM130.265 162.17a7.054 7.054 0 0 1-14.108 0V74.836a7.054 7.054 0 0 1 7.054-7.054h81.225c.839 0 1.258-1.012.665-1.605l-15.356-15.356a7.053 7.053 0 0 1 9.974-9.974l29.635 29.726a7.06 7.06 0 0 1-.677 9.295l-28.958 28.958a7.053 7.053 0 0 1-9.974-9.974l15.356-15.356c.593-.593.174-1.605-.665-1.605h-73.231a.941.941 0 0 0-.94.94zm100.927 195.327-12.639-6.44a.928.928 0 0 0-1.092.173l-12.238 12.238a.928.928 0 0 0-.173 1.092l6.441 12.64a.915.915 0 0 1-.024.898 56.134 56.134 0 0 0-5.679 13.698.917.917 0 0 1-.618.652l-13.486 4.381a.928.928 0 0 0-.65.894v17.308c0 .414.256.766.65.894l13.485 4.382a.919.919 0 0 1 .618.652 56.15 56.15 0 0 0 5.679 13.697.913.913 0 0 1 .024.898l-6.441 12.64a.928.928 0 0 0 .173 1.092l12.238 12.238a.928.928 0 0 0 1.092.173l12.64-6.44a.918.918 0 0 1 .898.024 56.123 56.123 0 0 0 13.698 5.681c.317.084.55.305.652.618l4.381 13.484c.128.394.48.65.894.65h17.308a.928.928 0 0 0 .894-.65l4.382-13.485a.919.919 0 0 1 .652-.618 56.176 56.176 0 0 0 13.698-5.68.913.913 0 0 1 .898-.024l12.64 6.44a.928.928 0 0 0 1.092-.173l12.238-12.238a.928.928 0 0 0 .173-1.092l-6.441-12.64a.915.915 0 0 1 .024-.898 56.179 56.179 0 0 0 5.681-13.698.917.917 0 0 1 .618-.652l13.484-4.381a.928.928 0 0 0 .65-.894v-17.308a.928.928 0 0 0-.65-.894l-13.485-4.381a.919.919 0 0 1-.618-.652 56.174 56.174 0 0 0-5.679-13.698.913.913 0 0 1-.024-.898l6.441-12.64a.928.928 0 0 0-.173-1.092L303.28 351.23a.928.928 0 0 0-1.092-.173l-12.64 6.44a.915.915 0 0 1-.898-.024 56.179 56.179 0 0 0-13.698-5.681.914.914 0 0 1-.652-.618l-4.381-13.484a.928.928 0 0 0-.894-.65h-17.308a.928.928 0 0 0-.894.65l-4.381 13.484a.919.919 0 0 1-.652.618 56.167 56.167 0 0 0-13.699 5.68.917.917 0 0 1-.899.025zm29.179 21.137c15.323 0 27.744 12.421 27.744 27.744s-12.421 27.744-27.744 27.744-27.744-12.421-27.744-27.744 12.421-27.744 27.744-27.744zM110.105 192.263a.918.918 0 0 0 .847.308 81.607 81.607 0 0 1 22.003-.349.918.918 0 0 0 .837-.334l13.482-16.291a.929.929 0 0 1 1.071-.275l23.961 9.492c.385.152.618.52.592.933l-1.332 21.104a.913.913 0 0 0 .381.816 81.584 81.584 0 0 1 15.793 15.323c.203.259.5.387.828.356l21.065-1.987a.927.927 0 0 1 .951.563l10.231 23.654c.164.38.07.805-.241 1.079l-15.875 13.99a.918.918 0 0 0-.308.847 81.633 81.633 0 0 1 .349 22.001.915.915 0 0 0 .334.836l16.293 13.484a.929.929 0 0 1 .275 1.071l-9.492 23.961a.927.927 0 0 1-.933.592l-21.104-1.332a.913.913 0 0 0-.816.381 81.56 81.56 0 0 1-15.324 15.793.917.917 0 0 0-.356.828l1.987 21.065a.927.927 0 0 1-.563.951l-23.655 10.231a.929.929 0 0 1-1.079-.242l-13.989-15.874a.918.918 0 0 0-.847-.308 81.633 81.633 0 0 1-22.001.349.915.915 0 0 0-.836.334L99.15 371.906a.929.929 0 0 1-1.071.275l-23.961-9.492a.927.927 0 0 1-.592-.933l1.332-21.104a.913.913 0 0 0-.381-.816 81.526 81.526 0 0 1-15.792-15.324.917.917 0 0 0-.828-.356l-21.066 1.987a.927.927 0 0 1-.951-.563l-10.231-23.655a.929.929 0 0 1 .242-1.079l15.874-13.99a.916.916 0 0 0 .308-.847 81.673 81.673 0 0 1-.349-22.001.915.915 0 0 0-.334-.836l-16.292-13.484a.929.929 0 0 1-.275-1.071l9.492-23.961a.928.928 0 0 1 .933-.592l21.106 1.332a.913.913 0 0 0 .816-.381 81.602 81.602 0 0 1 15.321-15.793.917.917 0 0 0 .356-.828l-1.987-21.065a.927.927 0 0 1 .563-.951l23.654-10.231a.928.928 0 0 1 1.079.241zm13.9 33.422c-26.547-.438-48.422 20.726-48.86 47.273-.438 26.546 20.726 48.421 47.273 48.86 26.546.438 48.422-20.726 48.86-47.273.438-26.546-20.726-48.422-47.273-48.86zM361.26 45.594c51.204 0 92.716 41.512 92.716 92.716s-41.512 92.716-92.716 92.716-92.716-41.512-92.716-92.716 41.512-92.716 92.716-92.716z" clip-rule="evenodd" fill="#ffffff" opacity="1" data-original="#000000"></path></g></svg>