<svg xmlns="http://www.w3.org/2000/svg" version="1.1" xmlns:xlink="http://www.w3.org/1999/xlink" width="40" height="40" x="0" y="0" viewBox="0 0 64 64" style="enable-background:new 0 0 512 512" xml:space="preserve" class=""><g><path d="M62 46v8c0 4.411-3.589 8-8 8h-8a2 2 0 0 1 0-4h8c2.206 0 4-1.794 4-4v-8a2 2 0 0 1 4 0zM18 58h-8c-2.206 0-4-1.794-4-4v-8a2 2 0 0 0-4 0v8c0 4.411 3.589 8 8 8h8a2 2 0 0 0 0-4zM54 2h-8a2 2 0 0 0 0 4h8c2.206 0 4 1.794 4 4v8a2 2 0 0 0 4 0v-8c0-4.411-3.589-8-8-8zM4 20a2 2 0 0 0 2-2v-8c0-2.206 1.794-4 4-4h8a2 2 0 0 0 0-4h-8c-4.411 0-8 3.589-8 8v8a2 2 0 0 0 2 2zm34.369 21.197A13.908 13.908 0 0 1 30 44c-7.72 0-14-6.28-14-14s6.28-14 14-14 14 6.28 14 14c0 3.14-1.051 6.031-2.803 8.369l7.217 7.217a2 2 0 1 1-2.828 2.828zM30 40c5.514 0 10-4.486 10-10s-4.486-10-10-10-10 4.486-10 10 4.486 10 10 10z" fill="#ffffff" opacity="1" data-original="#000000"></path></g></svg>