<svg xmlns="http://www.w3.org/2000/svg" version="1.1" xmlns:xlink="http://www.w3.org/1999/xlink" width="40" height="40" x="0" y="0" viewBox="0 0 74 74" style="enable-background:new 0 0 512 512" xml:space="preserve" class=""><g><path d="m58.19 29.43-5.32-13.57h2.43c.41 0 .75-.34.75-.75v-4.66c0-.41-.34-.75-.75-.75H34.86c.35-.53.56-1.17.56-1.85 0-1.84-1.5-3.34-3.35-3.34s-3.35 1.5-3.35 3.34c0 .69.21 1.32.56 1.85H8.84c-.41 0-.75.34-.75.75v4.66c0 .41.34.75.75.75h3.86L4.99 35.53c0 .01 0 .03-.01.04-.03.08-.05.15-.05.23 0 2.81.95 5.18 2.75 6.85 1.6 1.48 3.74 2.3 6.03 2.3 4.36 0 8.78-3.14 8.78-9.15 0-.08-.02-.15-.05-.22 0-.02 0-.03-.01-.05l-.01-.02-7.7-19.65h14.54v21.18c-1.95 3.23-3.09 6.99-3.09 11.02 0 .79.05 1.57.13 2.33a13.25 13.25 0 0 0-6.21 6.18H5.69c-.41 0-.75.34-.75.75v4.55c0 .41.34.75.75.75h26.26c3.92 4.22 9.49 6.87 15.69 6.87 11.82 0 21.43-9.62 21.43-21.44-.01-7.97-4.4-14.93-10.88-18.62zM13.72 43.46c-1.91 0-3.69-.67-5.01-1.9-1.33-1.23-2.1-2.95-2.24-5h14.51c-.34 4.73-3.92 6.9-7.26 6.9zm-6.93-8.4 6.93-17.69 6.93 17.69zm49.39-6.64a21.218 21.218 0 0 0-7.97-1.76l3.64-9.29zm-9.59-1.74c-3.95.19-7.62 1.44-10.73 3.49V15.86h14.97zM30.22 7.85c0-1.02.83-1.84 1.85-1.84s1.85.83 1.85 1.84c0 1.02-.83 1.85-1.85 1.85s-1.85-.83-1.85-1.85zM9.59 11.2h44.95v3.16H9.59zm21.19 4.66h3.58v15.4a21.394 21.394 0 0 0-3.58 3.6zm-4.22 36.08c.3 1.61.77 3.17 1.4 4.63H21.8c1.11-1.97 2.76-3.57 4.76-4.63zM6.44 61.13v-3.05h22.25c.57 1.08 1.24 2.09 1.98 3.05zM47.63 68c-10.99 0-19.94-8.94-19.94-19.94s8.94-19.94 19.94-19.94c10.99 0 19.93 8.94 19.93 19.94S58.62 68 47.63 68z" fill="#ffffff" opacity="1" data-original="#000000" class=""></path><path d="M57.21 35.42a.738.738 0 0 0-.32-.55 16.019 16.019 0 0 0-9.26-2.94c-8.9 0-16.13 7.24-16.13 16.13 0 3.33 1.02 6.53 2.94 9.26.13.18.33.3.55.32h.06c.2 0 .39-.08.53-.22l21.41-21.41c.16-.16.23-.37.22-.59zM35.17 55.71A14.538 14.538 0 0 1 33 48.06c0-8.07 6.56-14.63 14.63-14.63 2.72 0 5.34.75 7.65 2.17zM60.82 38.8c-.13-.18-.33-.3-.55-.32s-.44.06-.6.22l-21.4 21.41a.738.738 0 0 0 .1 1.14 16.05 16.05 0 0 0 9.27 2.94c8.89 0 16.12-7.24 16.12-16.13 0-3.32-1.02-6.53-2.94-9.26zM47.63 62.7c-2.72 0-5.35-.75-7.65-2.17l20.11-20.11c1.42 2.31 2.17 4.93 2.17 7.65 0 8.06-6.56 14.63-14.63 14.63z" fill="#ffffff" opacity="1" data-original="#000000" class=""></path></g></svg>